<svg width="18" height="14" viewBox="0 0 18 14" fill="none" xmlns="http://www.w3.org/2000/svg">
<path d="M15.2477 1.28575C14.1042 0.770043 12.8784 0.388871 11.5967 0.172127C11.5852 0.169935 11.5734 0.171348 11.5629 0.176168C11.5523 0.180989 11.5435 0.188979 11.5376 0.199033C11.3807 0.474822 11.2058 0.834319 11.0832 1.11833C9.72376 0.915215 8.34169 0.915215 6.98224 1.11833C6.84572 0.803572 6.69177 0.496664 6.5211 0.199033C6.51532 0.188856 6.50657 0.180684 6.49602 0.17561C6.48547 0.170535 6.47362 0.168799 6.46206 0.170632C5.18102 0.387377 3.95529 0.768548 2.81103 1.285C2.80119 1.28913 2.79284 1.29617 2.78712 1.30518C0.461221 4.72451 -0.176307 8.05939 0.136851 11.3524C0.137723 11.3605 0.140226 11.3683 0.144209 11.3753C0.148193 11.3824 0.153572 11.3886 0.160021 11.3935C1.51758 12.3819 3.03176 13.1348 4.63916 13.6208C4.65037 13.6242 4.66235 13.6242 4.67355 13.6207C4.68475 13.6173 4.69464 13.6105 4.70194 13.6013C5.04724 13.1379 5.35517 12.6484 5.61825 12.1342C5.63394 12.1043 5.619 12.0684 5.58761 12.0565C5.10479 11.8746 4.63698 11.6552 4.18848 11.4002C4.18042 11.3956 4.17363 11.3891 4.16872 11.3812C4.1638 11.3734 4.16092 11.3644 4.16033 11.3551C4.15974 11.3459 4.16145 11.3366 4.16532 11.3282C4.16919 11.3198 4.1751 11.3124 4.1825 11.3068C4.27667 11.2373 4.37085 11.1648 4.46053 11.0923C4.46861 11.0858 4.47833 11.0816 4.48862 11.0803C4.49892 11.079 4.50937 11.0806 4.51883 11.0848C7.45385 12.4032 10.6325 12.4032 13.5332 11.0848C13.5426 11.0803 13.5532 11.0786 13.5637 11.0797C13.5741 11.0809 13.584 11.085 13.5922 11.0916C13.6819 11.1648 13.7753 11.2373 13.8702 11.3068C13.8777 11.3123 13.8837 11.3195 13.8877 11.3279C13.8917 11.3363 13.8936 11.3455 13.8931 11.3547C13.8927 11.364 13.8899 11.373 13.8852 11.3809C13.8804 11.3889 13.8737 11.3955 13.8658 11.4002C13.4188 11.6573 12.9539 11.8748 12.4659 12.0557C12.4584 12.0584 12.4516 12.0627 12.4459 12.0683C12.4401 12.0739 12.4357 12.0806 12.4328 12.088C12.4299 12.0954 12.4286 12.1034 12.429 12.1114C12.4295 12.1193 12.4316 12.1271 12.4352 12.1342C12.7043 12.6476 13.0122 13.1364 13.3508 13.6006C13.3578 13.6101 13.3676 13.6172 13.3789 13.621C13.3901 13.6247 13.4022 13.6249 13.4136 13.6215C15.0237 13.1369 16.5404 12.3836 17.8994 11.3935C17.9061 11.3889 17.9116 11.3829 17.9158 11.3759C17.9199 11.369 17.9225 11.3612 17.9234 11.3532C18.2971 7.54593 17.297 4.23796 15.2709 1.30667C15.2659 1.29715 15.2577 1.28972 15.2477 1.28575ZM6.05697 9.34715C5.17355 9.34715 4.44484 8.54818 4.44484 7.56835C4.44484 6.58777 5.15935 5.78955 6.05697 5.78955C6.96132 5.78955 7.6833 6.59449 7.6691 7.56835C7.6691 8.54893 6.95459 9.34715 6.05697 9.34715ZM12.0174 9.34715C11.1333 9.34715 10.4053 8.54818 10.4053 7.56835C10.4053 6.58777 11.1191 5.78955 12.0174 5.78955C12.9218 5.78955 13.6438 6.59449 13.6296 7.56835C13.6296 8.54893 12.9225 9.34715 12.0174 9.34715Z" fill="white"/>
</svg>
