<svg width="20" height="16" viewBox="0 0 20 16" fill="none" xmlns="http://www.w3.org/2000/svg">
<path d="M19.0643 2.10455C18.3771 2.40903 17.639 2.61476 16.8629 2.70775C17.6636 2.22864 18.2627 1.47457 18.5483 0.586248C17.796 1.03309 16.9727 1.34761 16.1141 1.51615C15.5367 0.899671 14.7719 0.491056 13.9385 0.35375C13.1051 0.216443 12.2497 0.358125 11.5051 0.756801C10.7604 1.15548 10.1682 1.78884 9.82046 2.55856C9.47268 3.32827 9.38874 4.19128 9.58169 5.01359C8.05737 4.93705 6.56618 4.54086 5.20489 3.85072C3.84361 3.16057 2.64264 2.19191 1.67995 1.00759C1.35078 1.5754 1.16151 2.23375 1.16151 2.93488C1.16114 3.56606 1.31657 4.18757 1.61402 4.74427C1.91146 5.30097 2.34172 5.77565 2.86661 6.12618C2.25787 6.10681 1.66257 5.94233 1.13024 5.64642V5.69579C1.13018 6.58105 1.43639 7.43906 1.99693 8.12425C2.55747 8.80943 3.3378 9.27958 4.20551 9.45492C3.64081 9.60775 3.04876 9.63026 2.47408 9.52075C2.71889 10.2825 3.19578 10.9486 3.83797 11.4258C4.48015 11.903 5.2555 12.1674 6.05545 12.1821C4.69748 13.2481 3.02041 13.8264 1.294 13.8238C0.988185 13.8239 0.682629 13.8061 0.378906 13.7703C2.13131 14.8971 4.17123 15.495 6.2546 15.4927C13.3071 15.4927 17.1625 9.6516 17.1625 4.58567C17.1625 4.42108 17.1584 4.25485 17.151 4.09027C17.9009 3.54794 18.5482 2.87636 19.0626 2.10701L19.0643 2.10455Z" fill="white"/>
</svg>
