<svg width="36" height="29" viewBox="0 0 36 29" fill="none" xmlns="http://www.w3.org/2000/svg">
<path d="M35.1586 3.80106C33.8959 4.36055 32.5396 4.73858 31.1136 4.90945C32.5849 4.02908 33.6857 2.64348 34.2105 1.01119C32.8281 1.83226 31.3153 2.4102 29.7376 2.71989C28.6766 1.58711 27.2714 0.836276 25.74 0.583975C24.2086 0.331673 22.6368 0.592015 21.2685 1.32458C19.9003 2.05715 18.8121 3.22095 18.1731 4.63531C17.534 6.04966 17.3798 7.63544 17.7343 9.14643C14.9334 9.0058 12.1933 8.27779 9.69197 7.00965C7.1906 5.74151 4.98384 3.96159 3.21489 1.7854C2.61004 2.82877 2.26225 4.03847 2.26225 5.3268C2.26158 6.48659 2.54718 7.62862 3.09374 8.65156C3.64029 9.6745 4.43088 10.5467 5.39538 11.1908C4.27682 11.1552 3.18294 10.853 2.20479 10.3093V10.4C2.20468 12.0266 2.76735 13.6032 3.79734 14.8623C4.82732 16.1213 6.26118 16.9852 7.85561 17.3074C6.81796 17.5882 5.73007 17.6296 4.67409 17.4283C5.12395 18.828 6.00022 20.0519 7.18024 20.9288C8.36026 21.8057 9.78495 22.2916 11.2549 22.3186C8.7596 24.2774 5.67797 25.3399 2.5057 25.3353C1.94377 25.3354 1.38231 25.3026 0.824219 25.237C4.04426 27.3073 7.79261 28.4061 11.6208 28.4018C24.5797 28.4018 31.664 17.6688 31.664 8.36012C31.664 8.0577 31.6565 7.75225 31.6429 7.44982C33.0208 6.45329 34.2103 5.21928 35.1555 3.8056L35.1586 3.80106Z" fill="white"/>
</svg>
